<svg xmlns="http://www.w3.org/2000/svg" viewBox="0 0 64 64">
  <defs>
    <linearGradient id="gradient" x1="0%" y1="0%" x2="100%" y2="100%">
      <stop offset="0%" stop-color="#60a5fa" />
      <stop offset="100%" stop-color="#2563eb" />
    </linearGradient>
  </defs>
  <rect width="64" height="64" rx="16" fill="url(#gradient)" />
  <path
    d="M20 42c0-10 12-12 12-20 0-2-1.4-4-4-4-2.5 0-4.2 1.6-5 3.8L18 20c1.6-3.8 5.2-6 10-6 6 0 10 4 10 9.4 0 8.8-11.6 11-11.6 18.6h-6.4Zm18.4 0c0-4.2 3.4-6.6 5.6-8.8 2.2-2.2 4-4.4 4-7.8 0-5.2-4-9.2-9.6-9.2-1.8 0-3.8.6-5.2 1.6L35 19c1-.8 2.2-1.2 3.4-1.2 2.8 0 4.6 1.8 4.6 4.6 0 2.8-1.8 4.8-3.8 6.8-2.8 2.8-6.2 5.8-6.2 11.2h5.4Z"
    fill="#ffffff"
  />
</svg>

